<svg width="462" height="370" viewBox="0 0 462 370" fill="none" xmlns="http://www.w3.org/2000/svg">
<path d="M239.093 359.138H204.665L198.295 303.803H245.462L239.093 359.138Z" fill="#DAD9D0" stroke="#393934" stroke-width="2" stroke-linecap="round" stroke-linejoin="round"/>
<path d="M221.878 199.28V193" stroke="#393934" stroke-width="2" stroke-linecap="round" stroke-linejoin="round"/>
<path d="M221.878 303.804V203.298" stroke="#393934" stroke-width="2" stroke-linecap="round" stroke-linejoin="round"/>
<path d="M196.4 262.051C196.4 254.984 202.124 249.303 209.139 249.303C216.154 249.303 221.878 255.031 221.878 262.051" stroke="#393934" stroke-width="2" stroke-linecap="round" stroke-linejoin="round"/>
<path d="M221.878 237.016C221.878 229.949 227.602 224.268 234.617 224.268C241.678 224.268 247.355 229.996 247.355 237.016" stroke="#393934" stroke-width="2" stroke-linecap="round" stroke-linejoin="round"/>
<path d="M209.139 213.367C216.201 213.367 221.877 219.096 221.877 226.116" stroke="#393934" stroke-width="2" stroke-linecap="round" stroke-linejoin="round"/>
<path d="M183.525 268.656L199.722 260.387C205.356 257.525 212.277 259.741 215.137 265.422C218.001 271.056 215.787 277.987 210.11 280.849L189.664 291.287C184.03 294.153 177.109 291.933 174.245 286.252C171.389 280.618 173.604 273.692 179.276 270.825" fill="#3D84A8"/>
<path d="M183.525 268.656L199.722 260.387C205.356 257.525 212.277 259.741 215.137 265.422C218.001 271.056 215.787 277.987 210.11 280.849L189.664 291.287C184.03 294.153 177.109 291.933 174.245 286.252C171.389 280.618 173.604 273.692 179.276 270.825" fill="#FBE55A"/>
<path d="M183.525 268.656L199.722 260.387C205.356 257.525 212.277 259.741 215.137 265.422C218.001 271.056 215.787 277.987 210.11 280.849L189.664 291.287C184.03 294.153 177.109 291.933 174.245 286.252C171.389 280.618 173.604 273.692 179.276 270.825" stroke="#393934" stroke-width="2" stroke-linecap="round" stroke-linejoin="round"/>
<path d="M182.418 282.097L199.26 273.506" stroke="#393934" stroke-width="2" stroke-linecap="round" stroke-linejoin="round"/>
<path d="M202.775 271.748L206.977 269.579" stroke="#393934" stroke-width="2" stroke-linecap="round" stroke-linejoin="round"/>
<path d="M210.297 210.364L202.034 231.796C199.772 237.708 193.125 240.664 187.218 238.354C181.31 236.044 178.356 229.439 180.664 223.527L188.927 202.099C191.189 196.187 197.836 193.231 203.744 195.536C209.651 197.799 212.558 204.452 210.297 210.364Z" fill="#FBE55A" stroke="#393934" stroke-width="2" stroke-linecap="round" stroke-linejoin="round"/>
<path d="M190.493 229.811L197.277 212.165" stroke="#393934" stroke-width="2" stroke-linecap="round" stroke-linejoin="round"/>
<path d="M198.71 208.473L200.415 204.084" stroke="#393934" stroke-width="2" stroke-linecap="round" stroke-linejoin="round"/>
<path d="M233.93 254.243L246.852 273.229C250.404 278.448 257.56 279.834 262.775 276.275C267.991 272.72 269.376 265.559 265.823 260.339L252.897 241.358C249.344 236.139 242.193 234.753 236.973 238.308C231.758 241.867 230.377 248.977 233.93 254.243Z" fill="#FBE55A" stroke="#393934" stroke-width="2" stroke-linecap="round" stroke-linejoin="round"/>
<path d="M257.645 268.655L246.984 252.998" stroke="#393934" stroke-width="2" stroke-linecap="round" stroke-linejoin="round"/>
<path d="M244.769 249.765L242.14 245.885L244.769 249.765Z" fill="#FBE55A"/>
<path d="M244.769 249.765L242.14 245.885" stroke="#393934" stroke-width="2" stroke-linecap="round" stroke-linejoin="round"/>
<path d="M358.815 356.138H335.991L331.769 319.455H363.037L358.815 356.138Z" fill="#DAD9D0" stroke="#393934" stroke-width="2" stroke-linecap="round" stroke-linejoin="round"/>
<path d="M347.403 250.163V246" stroke="#393934" stroke-width="2" stroke-linecap="round" stroke-linejoin="round"/>
<path d="M347.403 319.455V252.827" stroke="#393934" stroke-width="2" stroke-linecap="round" stroke-linejoin="round"/>
<path d="M330.513 291.776C330.513 287.091 334.307 283.325 338.958 283.325C343.608 283.325 347.403 287.122 347.403 291.776" stroke="#393934" stroke-width="2" stroke-linecap="round" stroke-linejoin="round"/>
<path d="M347.403 275.18C347.403 270.494 351.197 266.728 355.848 266.728C360.529 266.728 364.292 270.526 364.292 275.18" stroke="#393934" stroke-width="2" stroke-linecap="round" stroke-linejoin="round"/>
<path d="M338.958 259.502C343.639 259.502 347.402 263.299 347.402 267.953" stroke="#393934" stroke-width="2" stroke-linecap="round" stroke-linejoin="round"/>
<path d="M321.978 296.155L332.715 290.673C336.45 288.776 341.038 290.245 342.934 294.011C344.833 297.746 343.365 302.34 339.601 304.238L326.047 311.157C322.312 313.058 317.724 311.586 315.825 307.82C313.932 304.085 315.4 299.493 319.161 297.593" fill="#3D84A8"/>
<path d="M321.978 296.155L332.715 290.673C336.45 288.776 341.038 290.245 342.934 294.011C344.833 297.746 343.365 302.34 339.601 304.238L326.047 311.157C322.312 313.058 317.724 311.586 315.825 307.82C313.932 304.085 315.4 299.493 319.161 297.593" fill="#FFF3A6"/>
<path d="M321.978 296.155L332.715 290.673C336.45 288.776 341.038 290.245 342.934 294.011C344.833 297.746 343.365 302.34 339.601 304.238L326.047 311.157C322.312 313.058 317.724 311.586 315.825 307.82C313.932 304.085 315.4 299.493 319.161 297.593" stroke="#393934" stroke-width="2" stroke-linecap="round" stroke-linejoin="round"/>
<path d="M321.243 305.065L332.409 299.37" stroke="#393934" stroke-width="2" stroke-linecap="round" stroke-linejoin="round"/>
<path d="M334.738 298.205L337.524 296.767" stroke="#393934" stroke-width="2" stroke-linecap="round" stroke-linejoin="round"/>
<path d="M339.725 257.511L334.248 271.719C332.748 275.638 328.342 277.598 324.425 276.067C320.509 274.535 318.551 270.156 320.081 266.237L325.559 252.032C327.058 248.112 331.465 246.153 335.381 247.681C339.298 249.181 341.225 253.591 339.725 257.511Z" fill="#FFF3A6" stroke="#393934" stroke-width="2" stroke-linecap="round" stroke-linejoin="round"/>
<path d="M326.597 270.404L331.094 258.705" stroke="#393934" stroke-width="2" stroke-linecap="round" stroke-linejoin="round"/>
<path d="M332.044 256.258L333.175 253.348" stroke="#393934" stroke-width="2" stroke-linecap="round" stroke-linejoin="round"/>
<path d="M355.392 286.6L363.959 299.186C366.314 302.646 371.057 303.565 374.515 301.206C377.972 298.849 378.89 294.102 376.535 290.642L367.966 278.058C365.611 274.598 360.87 273.68 357.41 276.036C353.952 278.396 353.037 283.109 355.392 286.6Z" fill="#FFF3A6" stroke="#393934" stroke-width="2" stroke-linecap="round" stroke-linejoin="round"/>
<path d="M371.114 296.154L364.047 285.775" stroke="#393934" stroke-width="2" stroke-linecap="round" stroke-linejoin="round"/>
<path d="M362.578 283.631L360.835 281.059L362.578 283.631Z" fill="#FBE55A"/>
<path d="M362.578 283.631L360.835 281.059" stroke="#393934" stroke-width="2" stroke-linecap="round" stroke-linejoin="round"/>
<path d="M329.606 36.4415L325.707 20.029L360.755 11.4199L329.606 36.4415Z" fill="#F3F3ED" stroke="#393934" stroke-width="2" stroke-linecap="round" stroke-linejoin="round"/>
<path d="M320.991 25.4334L321.977 20.9258L339.082 15.5866L360.755 11.4202L318.49 36.6625L320.284 28.5095" fill="#F3F3ED"/>
<path d="M320.991 25.4334L321.977 20.9258L339.082 15.5866L360.755 11.4202L318.49 36.6625L320.284 28.5095" fill="#F3F3ED"/>
<path d="M320.991 25.4334L321.977 20.9258L339.082 15.5866L360.755 11.4202L318.49 36.6625L320.284 28.5095" stroke="#393934" stroke-width="2" stroke-linecap="round" stroke-linejoin="round"/>
<path d="M314 17.9844L321.977 20.926L360.755 11.4204L314 17.9844Z" fill="#F3F3ED" stroke="#393934" stroke-width="2" stroke-linecap="round" stroke-linejoin="round"/>
<path d="M230.57 89.5451C246.359 92.6845 283.042 96.1991 286.487 73.7732C289.512 54.0874 275.474 55.6341 274.293 68.0782C272.846 83.3273 315.531 56.923 317.137 39.9996" stroke="#393934" stroke-dasharray="6 6"/>
<path d="M192.262 133.243L187.427 125.309L179 129.219L187.196 102.172L200.418 106.159L192.262 133.243Z" stroke="#333333" stroke-width="2" stroke-linecap="round" stroke-linejoin="round"/>
<path d="M214.533 114.089L210.897 102.172L197.672 106.159L205.832 133.243L210.703 125.309L219.093 129.219L216.89 121.905" stroke="#333333" stroke-width="2" stroke-linecap="round" stroke-linejoin="round"/>
<path d="M199.065 111.228C206.026 111.228 211.67 105.579 211.67 98.6139C211.67 91.6487 206.026 86 199.065 86C192.101 86 186.46 91.6487 186.46 98.6139C186.46 105.579 192.101 111.228 199.065 111.228Z" fill="#F3F3ED" stroke="#333333" stroke-width="2" stroke-linecap="round" stroke-linejoin="round"/>
<path d="M216.234 119.701L215.189 116.334" stroke="#333333" stroke-width="2" stroke-linecap="round" stroke-linejoin="round"/>
<path d="M199.065 91.4174C203.049 91.4174 206.257 94.6271 206.257 98.6139C206.257 102.598 203.049 105.81 199.065 105.81C197.327 105.81 195.704 105.191 194.465 104.145" fill="#F3F3ED"/>
<path d="M199.065 91.4174C203.049 91.4174 206.257 94.6271 206.257 98.6139C206.257 102.598 203.049 105.81 199.065 105.81C197.327 105.81 195.704 105.191 194.465 104.145" stroke="#333333" stroke-width="2" stroke-linecap="round" stroke-linejoin="round"/>
<path d="M191.836 98.6139C191.836 96.2151 192.995 94.0876 194.813 92.771" stroke="#333333" stroke-width="2" stroke-linecap="round" stroke-linejoin="round"/>
<path d="M105.639 153.558H79.0845V164.971H105.639V153.558Z" stroke="#393934" stroke-width="2" stroke-linecap="round" stroke-linejoin="round"/>
<path d="M92.32 197.362C81.7327 197.362 73.1426 188.766 73.1426 178.171V158.981H111.497V178.171C111.542 188.766 102.952 197.362 92.32 197.362Z" stroke="#393934" stroke-width="2" stroke-linecap="round" stroke-linejoin="round"/>
<path d="M92.3206 205.089V217.075" stroke="#393934" stroke-width="2" stroke-linecap="round" stroke-linejoin="round"/>
<path d="M92.3206 197.362V201.576" stroke="#393934" stroke-width="2" stroke-linecap="round" stroke-linejoin="round"/>
<path d="M103.036 222.586H81.6492V220.721C81.6492 218.723 83.2962 217.075 85.2933 217.075H99.3916C101.389 217.075 103.036 218.723 103.036 220.721V222.586Z" stroke="#393934" stroke-width="2" stroke-linecap="round" stroke-linejoin="round"/>
<path d="M92.3206 153.558V147" stroke="#393934" stroke-width="2" stroke-linecap="round" stroke-linejoin="round"/>
<path d="M68.3692 178.171H73.1426V158.981H59V168.796C59 173.962 63.2063 178.171 68.3692 178.171Z" stroke="#393934" stroke-width="2" stroke-linecap="round" stroke-linejoin="round"/>
<path d="M125.64 166.58V168.796C125.64 173.962 121.433 178.171 116.27 178.171H111.497V158.981H125.64V163.412" stroke="#393934" stroke-width="2" stroke-linecap="round" stroke-linejoin="round"/>
</svg>
