<svg width="472" height="408" viewBox="0 0 472 408" fill="none" xmlns="http://www.w3.org/2000/svg">
<g clip-path="url(#clip0_2_2241)">
<path d="M425.222 94.0834C423.284 96.0268 420.181 96.0268 418.244 94.0834L396.028 71.8408L403.007 64.854L425.222 87.0966C427.2 89.04 427.2 92.1434 425.222 94.0834Z" stroke="#393934" stroke-width="2" stroke-linecap="round" stroke-linejoin="round"/>
<path d="M391.591 57.6603C404.534 44.6974 404.534 23.6826 391.591 10.7197C378.644 -2.23989 357.655 -2.23989 344.708 10.7197C331.764 23.6826 331.764 44.6974 344.708 57.6603C357.655 70.6199 378.644 70.6199 391.591 57.6603Z" stroke="#393934" stroke-width="2" stroke-linecap="round" stroke-linejoin="round"/>
<path d="M394.826 31.3172C394.904 32.2872 394.982 33.2572 394.982 34.2273C394.982 49.0556 382.963 61.0893 368.153 61.0893C353.342 61.0893 341.324 49.0556 341.324 34.2273C341.324 19.3989 353.342 7.36865 368.153 7.36865C380.016 7.36865 390.097 15.0915 393.664 25.8431" stroke="#393934" stroke-width="2" stroke-linecap="round" stroke-linejoin="round"/>
<path d="M390.175 58.9933L399.48 68.3475" stroke="#393934" stroke-width="2" stroke-linecap="round" stroke-linejoin="round"/>
<path d="M320.05 219.268C320.05 219.233 320.084 219.233 320.05 219.268L393.595 219.233H393.63V219.268L363.829 329.06L363.794 329.095H290.248H290.213V329.06L320.05 219.268Z" fill="#B4B2A8"/>
<path d="M320.05 219.268C320.05 219.233 320.084 219.233 320.05 219.268ZM320.05 219.268L393.595 219.233H393.63V219.268L363.829 329.06L363.794 329.095H290.248H290.213V329.06L320.05 219.268Z" stroke="#393934" stroke-width="2" stroke-linecap="round" stroke-linejoin="round"/>
<path d="M358.984 337.61H278.676C275.574 337.61 273.064 335.097 273.064 331.991C273.064 328.885 275.574 326.372 278.676 326.372H364.561C364.596 326.372 364.596 326.372 364.596 326.407V331.991C364.596 335.097 362.086 337.61 358.984 337.61Z" fill="#B4B2A8" stroke="#393934" stroke-width="2" stroke-linecap="round" stroke-linejoin="round"/>
<path d="M354.105 337.609L361.32 377.917" stroke="#393934" stroke-width="2" stroke-linecap="round" stroke-linejoin="round"/>
<path d="M289.76 337.609L282.545 377.917" stroke="#393934" stroke-width="2" stroke-linecap="round" stroke-linejoin="round"/>
<path d="M206.944 97.3965V107.951C206.944 115.053 201.169 120.84 194.072 120.84H187.534" stroke="#393934" stroke-width="2" stroke-linecap="round" stroke-linejoin="round"/>
<path d="M206.944 103.942C219.068 103.942 228.888 94.1032 228.888 81.9712C228.888 69.8392 219.068 60 206.944 60C194.827 60 185 69.8392 185 81.9712C185 94.1032 194.827 103.942 206.944 103.942Z" stroke="#393934" stroke-width="2" stroke-linecap="round" stroke-linejoin="round"/>
<path d="M202.232 76.2359C202.232 73.3428 204.868 71.0602 207.859 71.6198C209.681 71.9726 211.151 73.4445 211.507 75.2726C211.91 77.3009 210.948 79.1798 209.427 80.1939C207.808 81.2081 206.944 83.087 206.944 84.9626V87.1977" stroke="#393934" stroke-width="2" stroke-linecap="round" stroke-linejoin="round"/>
<path d="M206.944 90.2401V92.4243" stroke="#393934" stroke-width="2" stroke-linecap="round" stroke-linejoin="round"/>
<path d="M309.734 244.322L282.585 250.792L258.684 266.546C246.397 274.688 243.051 291.247 251.183 303.514L258.349 314.374L274.85 339.309L254.533 377.789L299.357 377.855L346.392 288.699C349.972 281.894 351.882 274.321 351.882 266.612L351.913 250.824L309.734 244.322ZM296.008 299.323L291.456 292.454L304.077 284.075L296.008 299.323Z" fill="#DAD9D0" stroke="#393934" stroke-width="2" stroke-linecap="round" stroke-linejoin="round"/>
<path d="M296.007 299.322L274.885 339.278" stroke="#393934" stroke-width="2" stroke-linecap="round" stroke-linejoin="round"/>
<path d="M307.089 278.31L304.042 284.075" stroke="#393934" stroke-width="2" stroke-linecap="round" stroke-linejoin="round"/>
<path d="M351.913 220.357H282.585V250.792H351.913V220.357Z" fill="white" stroke="#393934" stroke-width="2" stroke-linecap="round" stroke-linejoin="round"/>
<path d="M358.341 212.246V225.25C358.341 233.597 351.578 240.368 343.244 240.368H286.3C277.43 240.368 270.535 232.624 271.57 223.777L275.021 194.581C276.527 181.947 287.203 172.427 299.926 172.427H328.347C344.918 172.427 358.309 185.866 358.309 202.426V208.125" fill="white"/>
<path d="M358.341 212.246V225.25C358.341 233.597 351.578 240.368 343.244 240.368H286.3C277.43 240.368 270.535 232.624 271.57 223.777L275.021 194.581C276.527 181.947 287.203 172.427 299.926 172.427H328.347C344.918 172.427 358.309 185.866 358.309 202.426V208.125" stroke="#393934" stroke-width="2" stroke-linecap="round" stroke-linejoin="round"/>
<path d="M296.008 163.276C296.008 163.276 310.003 153.927 322.457 164.348C325.032 166.494 330.222 173.132 326.908 182.314C323.325 188.449 316.329 192.204 308.831 191.195C295.642 189.419 288.744 174.437 296.008 163.276Z" fill="white" stroke="#393934" stroke-width="2" stroke-linecap="round" stroke-linejoin="round"/>
<path d="M302.034 171.321L301.33 176.451" stroke="#393934" stroke-width="2" stroke-linecap="round" stroke-linejoin="round"/>
<path d="M306.186 177.086C306.018 178.427 304.781 179.365 303.439 179.198C302.101 179.03 301.163 177.791 301.33 176.451" stroke="#393934" stroke-width="2" stroke-linecap="round" stroke-linejoin="round"/>
<path d="M313.617 155.166C326.44 156.876 333.401 171.122 326.907 182.314C322.522 181.745 319.441 177.69 320.013 173.331L320.915 166.595L296.007 163.277C299.692 157.578 306.454 154.192 313.617 155.166Z" fill="#48466D" stroke="#393934" stroke-width="2" stroke-linecap="round" stroke-linejoin="round"/>
<path d="M286.301 240.399V213.52H337.755C333.133 213.52 329.351 209.765 329.351 205.106" stroke="#393934" stroke-width="2" stroke-linecap="round" stroke-linejoin="round"/>
<path d="M326.036 213.52L323.46 205.242L292.023 213.52" stroke="#393934" stroke-width="2" stroke-linecap="round" stroke-linejoin="round"/>
<path d="M291.456 292.42L284.896 296.576" stroke="#393934" stroke-width="2" stroke-linecap="round" stroke-linejoin="round"/>
<path d="M309.58 282.738H271.828V288.615H315.45C315.45 285.366 312.829 282.738 309.58 282.738Z" fill="#FBE55A" stroke="#393934" stroke-width="2" stroke-linecap="round" stroke-linejoin="round"/>
<path d="M296.728 288.614H247.815L233.629 250.414H282.5L296.728 288.614Z" fill="#FBE55A" stroke="#393934" stroke-width="2" stroke-linecap="round" stroke-linejoin="round"/>
<path d="M264.357 272.718C266.567 272.718 268.359 270.924 268.359 268.711C268.359 266.499 266.567 264.705 264.357 264.705C262.148 264.705 260.353 266.499 260.353 268.711C260.353 270.924 262.148 272.718 264.357 272.718Z" fill="white" stroke="#393934" stroke-width="2" stroke-linecap="round" stroke-linejoin="round"/>
<path d="M184.378 288.507H219.098L224.459 263.355H189.777L184.378 288.507Z" fill="#FFDC8A" stroke="#393934" stroke-width="2" stroke-linecap="round" stroke-linejoin="round"/>
<path d="M229.858 288.507H195.176L189.777 263.355H224.497L229.858 288.507Z" fill="#FBE55A" stroke="#393934" stroke-width="2" stroke-linecap="round" stroke-linejoin="round"/>
<path d="M198.251 274.279H201.963" stroke="#393934" stroke-width="2" stroke-linecap="round" stroke-linejoin="round"/>
<path d="M204.476 274.279H208.226" stroke="#393934" stroke-width="2" stroke-linecap="round" stroke-linejoin="round"/>
<path d="M210.736 274.279H214.448" stroke="#393934" stroke-width="2" stroke-linecap="round" stroke-linejoin="round"/>
<path d="M216.961 274.279H220.711" stroke="#393934" stroke-width="2" stroke-linecap="round" stroke-linejoin="round"/>
<path d="M199.188 278.672H202.9" stroke="#393934" stroke-width="2" stroke-linecap="round" stroke-linejoin="round"/>
<path d="M205.413 278.672H209.16" stroke="#393934" stroke-width="2" stroke-linecap="round" stroke-linejoin="round"/>
<path d="M211.673 278.672H215.385" stroke="#393934" stroke-width="2" stroke-linecap="round" stroke-linejoin="round"/>
<path d="M217.898 278.672H221.649" stroke="#393934" stroke-width="2" stroke-linecap="round" stroke-linejoin="round"/>
<path d="M200.126 283.066H203.838" stroke="#393934" stroke-width="2" stroke-linecap="round" stroke-linejoin="round"/>
<path d="M206.351 283.066H210.098" stroke="#393934" stroke-width="2" stroke-linecap="round" stroke-linejoin="round"/>
<path d="M212.611 283.066H216.323" stroke="#393934" stroke-width="2" stroke-linecap="round" stroke-linejoin="round"/>
<path d="M218.837 283.066H222.584" stroke="#393934" stroke-width="2" stroke-linecap="round" stroke-linejoin="round"/>
<path d="M193.827 263.355C193.827 261.928 194.988 260.766 196.414 260.766C197.839 260.766 199 261.928 199 263.355C199 264.782 197.839 265.945 196.414 265.945" stroke="#393934" stroke-width="2" stroke-linecap="round" stroke-linejoin="round"/>
<path d="M201.402 263.355C201.402 261.928 202.563 260.766 203.988 260.766C205.414 260.766 206.574 261.928 206.574 263.355C206.574 264.782 205.414 265.945 203.988 265.945" stroke="#393934" stroke-width="2" stroke-linecap="round" stroke-linejoin="round"/>
<path d="M208.937 263.355C208.937 261.928 210.098 260.766 211.523 260.766C212.949 260.766 214.11 261.928 214.11 263.355C214.11 264.782 212.949 265.945 211.523 265.945" stroke="#393934" stroke-width="2" stroke-linecap="round" stroke-linejoin="round"/>
<path d="M216.474 263.355C216.474 261.928 217.638 260.766 219.06 260.766C220.485 260.766 221.65 261.928 221.65 263.355C221.65 264.782 220.485 265.945 219.06 265.945" stroke="#393934" stroke-width="2" stroke-linecap="round" stroke-linejoin="round"/>
<path d="M386.151 288.649H151.543V296.725H386.151V288.649Z" fill="#B4B2A8" stroke="#393934" stroke-width="2" stroke-linecap="round" stroke-linejoin="round"/>
<path d="M170.062 296.725L142.993 378.004L170.062 296.725Z" fill="#B4B2A8"/>
<path d="M170.062 296.725L142.993 378.004" stroke="#393934" stroke-width="2" stroke-linecap="round" stroke-linejoin="round"/>
<path d="M367.594 296.725L394.701 378.004L367.594 296.725Z" fill="#B4B2A8"/>
<path d="M367.594 296.725L394.701 378.004" stroke="#393934" stroke-width="2" stroke-linecap="round" stroke-linejoin="round"/>
<path d="M138.89 371.415H118.765C114.592 371.415 111.208 374.332 111.208 377.882H146.276C146.388 374.332 143.007 371.415 138.89 371.415Z" fill="#48466D" stroke="#393934" stroke-width="2" stroke-linecap="round" stroke-linejoin="round"/>
<path d="M128.8 371.416V227.371" stroke="#393934" stroke-width="2" stroke-linecap="round" stroke-linejoin="round"/>
<path d="M147.179 206.083L150.278 227.371H107.43L113.237 193.498H144.359L146.221 201.661" fill="#FBE55A"/>
<path d="M147.179 206.083L150.278 227.371H107.43L113.237 193.498H144.359L146.221 201.661" stroke="#393934" stroke-width="2" stroke-linecap="round" stroke-linejoin="round"/>
<path d="M119.271 227.371V243.554" stroke="#393934" stroke-width="2" stroke-linecap="round" stroke-linejoin="round"/>
</g>
<defs>
<clipPath id="clip0_2_2241">
<rect width="542" height="407" fill="white" transform="translate(0 0.5)"/>
</clipPath>
</defs>
</svg>
